<?xml version="1.0" standalone="no"?><!DOCTYPE svg PUBLIC "-//W3C//DTD SVG 1.1//EN" "http://www.w3.org/Graphics/SVG/1.1/DTD/svg11.dtd"><svg t="1760425285098" class="icon" viewBox="0 0 1024 1024" version="1.1" xmlns="http://www.w3.org/2000/svg" p-id="25011" xmlns:xlink="http://www.w3.org/1999/xlink" width="200" height="200"><path d="M522.965333 1006.592h-0.938666c-133.546667-3.370667-318.890667-78.421333-385.408-193.621333a36.565333 36.565333 0 0 1-1.237334-34.133334 742.4 742.4 0 0 1 149.674667-177.152 36.48 36.48 0 0 1 59.392 13.056 36.565333 36.565333 0 0 1-8.704 39.68 896.853333 896.853333 0 0 0-124.8 138.965334 431.530667 431.530667 0 0 0 251.690667 133.546666 533.333333 533.333333 0 0 1-22.826667-183.637333 36.608 36.608 0 0 1 73.130667 0.554667 373.077333 373.077333 0 0 0 41.472 208.042666 36.565333 36.565333 0 0 1-31.573334 54.869334l0.128-0.170667z m135.082667-19.2a36.565333 36.565333 0 0 1-35.84-43.946667l1.92-6.272 146.261333-365.696a36.565333 36.565333 0 0 1 64.853334-6.144l3.029333 6.144 146.304 365.696a36.565333 36.565333 0 0 1-64.853333 32.938667l-2.986667-5.973333-34.944-87.168-4.266667 0.682666h-150.613333l-34.816 86.954667a36.565333 36.565333 0 0 1-34.048 22.741333z m146.304-303.872l-48.341333 120.96h96.768l-48.426667-120.96z m-292.565333-25.301333a146.304 146.304 0 1 1 0-292.608 146.304 146.304 0 0 1 0 292.608z m0-219.434667a73.173333 73.173333 0 1 0 0 146.346667 73.173333 73.173333 0 0 0 0-146.346667z m443.392 36.224a36.565333 36.565333 0 0 1-36.053334-30.933333c-5.162667-32.853333-13.226667-65.28-24.021333-96.725334a533.504 533.504 0 0 1-147.157333 111.189334 36.565333 36.565333 0 1 1-36.053334-63.658667 368.128 368.128 0 0 0 159.402667-139.904 36.565333 36.565333 0 0 1 63.744 0.938667 581.802667 581.802667 0 0 1 56.405333 176.853333 36.522667 36.522667 0 0 1-36.565333 42.282667l0.298667-0.042667zM328.917333 402.218667a36.565333 36.565333 0 0 1-18.517333-5.034667 368.426667 368.426667 0 0 0-200.917333-68.096 36.565333 36.565333 0 0 1-31.146667-55.594667C148.053333 159.445333 305.664 36.48 438.613333 36.48a36.565333 36.565333 0 0 1 30.293334 16.042667 744.234667 744.234667 0 0 1 78.421333 218.026666 36.565333 36.565333 0 1 1-71.04 17.408A892.501333 892.501333 0 0 0 418.56 110.592a431.530667 431.530667 0 0 0-241.365333 151.125333c60.586667 13.866667 118.314667 38.229333 170.496 72.021334a36.565333 36.565333 0 0 1-18.730667 68.48z" p-id="25012" fill="#777777"></path></svg>