<?xml version="1.0" standalone="no"?><!DOCTYPE svg PUBLIC "-//W3C//DTD SVG 1.1//EN" "http://www.w3.org/Graphics/SVG/1.1/DTD/svg11.dtd"><svg t="1760425050615" class="icon" viewBox="0 0 1024 1024" version="1.1" xmlns="http://www.w3.org/2000/svg" p-id="2960" xmlns:xlink="http://www.w3.org/1999/xlink" width="200" height="200"><path d="M788.48 960c-40.448 0-73.216-32.256-73.216-72.192V137.216c0-40.448 32.768-73.216 73.216-73.216h96.256c40.448 0 73.216 32.768 73.216 73.216v750.592c0 39.936-32.768 72.192-73.216 72.192H788.48z m0-833.536c-5.632 0-10.752 5.12-10.752 10.752v750.592c0 5.632 5.12 10.752 10.752 10.752h96.256c5.632 0 10.752-5.12 10.752-10.752V137.216c0-5.632-5.12-10.752-10.752-10.752H788.48zM457.728 960c-40.448 0-73.216-32.256-73.216-72.192V347.136c0-40.448 32.768-73.216 73.216-73.216h96.256c39.936 0 72.192 32.768 72.192 73.216v540.672c0 38.912-33.28 72.192-72.192 72.192H457.728zM138.24 960c-38.912 0-72.192-33.28-72.192-72.192v-327.68c0-38.912 33.28-72.192 72.192-72.192h97.28c38.912 0 72.192 33.28 72.192 72.192v327.68c0 38.912-33.28 72.192-72.192 72.192H138.24z" p-id="2961" fill="#777777"></path></svg>