<?xml version="1.0" standalone="no"?><!DOCTYPE svg PUBLIC "-//W3C//DTD SVG 1.1//EN" "http://www.w3.org/Graphics/SVG/1.1/DTD/svg11.dtd"><svg t="1760424155452" class="icon" viewBox="0 0 1024 1024" version="1.1" xmlns="http://www.w3.org/2000/svg" p-id="19026" xmlns:xlink="http://www.w3.org/1999/xlink" width="200" height="200"><path d="M334.848 931.527111a453.688889 453.688889 0 0 1-144.668444-97.536 460.188444 460.188444 0 0 1-23.608889-25.457778 8495.032889 8495.032889 0 0 0-46.933334 47.246223c-6.641778 6.286222-15.445333 5.575111-15.459555-5.162667-0.014222-10.737778-16.512-169.955556-9.429334-174.094222 4.551111-3.384889 53.816889 0.184889 97.436445 3.740444 31.416889 2.56 59.875556 5.12 66.588444 5.091556 15.985778 0 24.903111 6.016 15.445334 15.488l-57.130667 57.088a383.857778 383.857778 0 0 0 678.4-228.124445A37.930667 37.930667 0 1 1 967.111111 512.184889a455.367111 455.367111 0 0 1-632.263111 419.356444zM56.888889 512.170667a455.011556 455.011556 0 0 1 800.469333-296.391111 4937.998222 4937.998222 0 0 0 46.933334-47.303112 13.141333 13.141333 0 0 1 8.533333-3.996444c4.266667 0 6.897778 3.413333 6.912 9.159111 0 2.844444 1.109333 15.544889 2.645333 33.180445 4.181333 48.213333 11.989333 137.955556 6.741334 140.999111a34.944 34.944 0 0 1-13.425778 1.336889c-18.986667 0-54.855111-2.744889-83.996445-5.12l-21.888-1.820445h-0.113777c-21.973333-1.848889-39.352889-3.285333-44.558223-3.285333h-0.341333c-10.040889 0-17.066667-2.417778-18.716444-6.428445-1.066667-2.574222 0.142222-5.688889 3.498666-9.073777l21.461334-21.432889 35.825777-35.783111A384 384 0 0 0 128.341333 494.535111 37.930667 37.930667 0 1 1 56.888889 512.170667z" fill="#777777" p-id="19027"></path></svg>